<?xml version="1.0" encoding="UTF-8"?>
<!DOCTYPE svg PUBLIC "-//W3C//DTD SVG 1.1//EN" "http://www.w3.org/Graphics/SVG/1.1/DTD/svg11.dtd">
<!-- Creator: CorelDRAW 2018 (64-Bit) -->
<svg xmlns="http://www.w3.org/2000/svg" xml:space="preserve" width="1357.49mm" height="498.3mm" version="1.1" style="shape-rendering:geometricPrecision; text-rendering:geometricPrecision; image-rendering:optimizeQuality; fill-rule:evenodd; clip-rule:evenodd"
viewBox="0 0 177288.95 65078.28"
 xmlns:xlink="http://www.w3.org/1999/xlink">
 <defs>
  <style type="text/css">
   <![CDATA[
    .fil3 {fill:none}
    .fil0 {fill:#FEFEFE;fill-rule:nonzero}
    .fil1 {fill:#155232;fill-rule:nonzero}
    .fil2 {fill:white;fill-rule:nonzero}
   ]]>
  </style>
 </defs>
 <g id="Слой_x0020_1">
  <metadata id="CorelCorpID_0Corel-Layer"/>
  <path class="fil0" d="M100295.34 7329.12c-14638.58,3044.21 -27703.35,9891.04 -39923.32,18572.15 -62.9,-71.87 -125.78,-143.75 -188.68,-215.53 253.65,-276.95 499.55,-561.48 763.06,-828.65 269.96,-273.63 533.39,-562.35 840.51,-789.23 2634.41,-1946.28 4421.51,-4488.84 5678.79,-7511.06 741.85,-1783.17 1864.64,-3407.93 2903.93,-5260.62 -13049.75,5432.28 -27580.79,12973.35 -34906.67,24783.96 2476.7,-3990.07 3043.15,-8537.89 4459.01,-13095.99 -517.07,280.78 -785.12,400.37 -1025.87,560.86 -3315.65,2209.27 -6508.3,4629.1 -8803.06,7899.04 -5813.72,8284.33 -11224.8,13517.47 -20407.04,17257.64 -569.76,232.12 -1132.11,482.45 -1700.38,718.13 -2314.21,960.11 -2315.51,959.59 -1452.59,3290.54 1057.19,2855.52 2759.24,5310.16 4728.28,7598.71 239.18,278 469.98,563.14 579.71,1017.94 -152.74,-59.49 -324.48,-91.59 -455.4,-182.49 -3743.32,-2597.95 -6277.43,-6065.89 -7504,-10468.12 -336.6,-1208.34 -70.65,-1636.1 1186.36,-2199.76 3612.31,-1619.79 7256.11,-3177.75 10808.14,-4921.57 4964.05,-2437.02 7313.76,-5618.86 10834.2,-9900.11 3671.97,-4465.64 7117.07,-8570.33 12232.36,-11361.06 202.55,-110.51 389.2,-272.15 604.92,-331.71 421.83,-116.37 858.92,-177.42 1289.64,-261.42 35.77,460.29 181.78,944.49 87.92,1376.61 -388.33,1787.61 -849.23,3559.44 -1078.2,5438.03 619.92,-663.7 1220.91,-1346.34 1862.55,-1988.32 6796.15,-6799.29 17523.43,-11576.51 26281.99,-15351.15 953.12,-410.74 1916.45,-803.61 2896.61,-1142.31 278.95,-96.38 633.96,27.48 954.17,50.33 -48.66,289.5 -30.35,612.67 -156.21,863.45 -1225.19,2439.99 -2475.14,4867.4 -3714.81,7299.97 -67.15,131.8 -106.06,278 -183.52,485.6 156.92,-12.66 280.09,15.35 348.56,-33.41 7578.05,-5398.71 16156.5,-8508.94 25042.68,-10881.92 2708.55,-723.28 5472.14,-1244.19 8219.94,-1812.66 398.37,-82.42 849.24,88.89 1275.77,142.8 -186.13,342.54 -338.52,709.23 -564,1023.69 -1494.02,2083.58 -3003.72,4155.9 -4508.3,6231.89 82.44,81.55 164.86,163.11 247.29,244.67 201.75,-60.72 417.47,-93.33 603.17,-186.05 7319.07,-3651.46 15165.34,-5262.19 23243.73,-5787.82 4136.97,-269.18 8299.24,-183.09 12450.16,-190.51 1525.25,-2.7 1561.1,227.75 879.15,1613.69 -809.45,1645.18 -1513.19,3342.25 -2335.83,5180.12 552.4,79.37 835.71,157.79 1118.24,155.35 12188.14,-103.46 22539.9,4794.3 32135.84,11770.49 957.58,696.15 751.63,1519.92 322.05,2330.86 -701.13,1323.66 -1481.1,2605.55 -2288.57,4010.85 212.4,187.01 473.47,390.08 703.4,623.75 2206.64,2241.54 4407.8,4488.24 6610.97,6733.26 526.5,536.44 531.21,1097.4 241.44,1786.66 -3025.89,7198.53 -7650.28,13033.45 -14453.67,17013.85 -891.62,521.53 -1822.59,988.02 -2771.01,1397.28 -1487.46,641.98 -2526.77,-42.04 -2338.18,-1639.68 123.08,-1042.18 502.33,-2087.16 942.13,-3050.83 553.98,-1213.84 1286.68,-2346.12 1750.81,-3727.45 -736.27,661.96 -1544.86,1260.24 -2194.09,1998.62 -1497.49,1703.01 -2893.47,3495.33 -4389.14,5200.09 -309.92,353.35 -933.49,735.05 -1304.2,647.13 -379.53,-90.1 -729.91,-700.87 -904.98,-1156.01 -229.83,-597.5 -275.63,-1265.74 -434.38,-2075.9 -900.44,802.57 -1689.66,1560.22 -2537.06,2245.73 -804.15,650.44 -1621.37,1310.13 -2517.28,1816.13 -1960.24,1107.26 -3693.77,615.56 -4770.32,-1359.68 -468.66,-859.95 -727.2,-1834.46 -1179.3,-3012.62 -687.08,747.27 -1271.5,1458.16 -1936.25,2083.67 -612.86,576.73 -1270.63,1127.92 -1981.79,1573.46 -1562.13,978.68 -2915.1,440.5 -3084.67,-1378.96 -100.65,-1080.81 166.87,-2297.71 610.77,-3302.38 578.13,-1308.31 1495.5,-2466.76 2363.13,-3842.49 -1102.45,206.73 -2083.39,340.79 -3031.29,596.98 -308,83.3 -568.88,456.8 -784.6,747.09 -2140.53,2880.66 -4479.68,5565.13 -7467.97,7610.06 -309.48,211.8 -670.24,380.22 -1031.8,478.8 -1386.64,378.12 -2032.81,-53.74 -1955.88,-1477.71 69.35,-1284.67 368.18,-2556.86 571.25,-3869.71 -1161.08,1213.75 -2293.45,2460.05 -3493.24,3637.69 -1924.74,1888.98 -2987.94,1680.41 -4136.02,-773.35 -290.1,-620 -497.8,-1278.48 -814.52,-2104.76 -790.88,818.1 -1472.21,1631.31 -2265.96,2313.85 -809.37,695.97 -1663.32,1398.32 -2612.86,1862.2 -3023.88,1477.34 -5566.01,76.14 -5847.49,-3254.95 -94.11,-1114.31 -13.16,-2378.83 430.21,-3378.54 1477.69,-3332.13 4071.72,-5540.17 7575.43,-6573.55 854.82,-252.16 1909.9,-403.24 2555.91,493.88 654.64,908.98 289.67,1896.39 -250.78,2700.09 -505.83,752.06 -1126.61,1504.48 -1867.16,2004.37 -1394.49,941.36 -2903.16,1716.54 -4382.25,2528.09 -524.85,288.01 -1199.97,363.2 -1046.19,1241.92 148.72,849.94 422.26,1653.12 1342.5,1805.67 688.64,114.18 1545.29,148.73 2119.43,-163.37 1439.49,-782.6 2807.29,-1722.47 4103.83,-2728.18 430.02,-333.55 461.5,-1136.47 835.01,-1594.58 2845.5,-3489.92 6330.8,-6026.99 10815.89,-6966.86 381.54,-79.99 936.55,96.21 1246.11,352.48 887.61,734.71 739.77,1451.89 -466.74,2294.67 1311.27,1605.32 338.35,2869.92 -668.15,4154.5 -375.42,479.13 -818.28,1007.21 -922.33,1569.9 -113.4,613.03 -79.9,1487.74 285.22,1881.04 295.09,317.76 1268.97,291.25 1779.42,59.75 891.45,-404.3 1725.77,-1008.86 2456.82,-1670.12 645.04,-583.37 1116.49,-1358.64 1659.83,-2043.2 -1239.05,-1205.21 -1381.06,-1734.4 -462.39,-3202.86 620.8,-992.46 1459.65,-1858.53 2269.2,-2716.74 248.42,-263.34 722.57,-313.59 1345.55,-561.92 -125.35,679.67 -201.75,1093.82 -299.89,1625.99 1279.17,-152.38 2521.46,-375.69 3769.49,-415.11 566.35,-17.88 1384.45,156.13 1665.05,547.09 523.45,728.95 564.18,1662.36 -138.25,2445.92 -564.52,629.77 -1188.62,1223.44 -1651.8,1922.3 -588.77,888.31 -1140.58,1828.34 -1523.59,2817.58 -338.61,874.62 90.45,1323.31 1005.9,1311.27 1186.72,-15.61 3337.19,-1581.85 3758.66,-2684.47 189.89,-496.94 416.86,-1009.56 747.27,-1417.78 1655.99,-2046.16 3533.98,-3861.86 5868.59,-5122.98 587.29,-317.24 1291.47,-522.4 1956.05,-566.72 916.49,-61.13 1401.38,532.69 1441.07,1439.85 63.76,1452.76 -1828,3944.3 -3362.24,4356.88 -129.09,-361.03 -260.98,-729.56 -482.1,-1347.73 -1306.74,1046.71 -2636.15,1906.59 -3701.09,3019.42 -1170.5,1223.26 -373.24,3262.35 1314.93,3539.38 689.89,113.22 1535.02,115.4 2129.2,-186.67 1565.98,-795.76 3048.3,-1762.67 4526.44,-2719.28 278.87,-180.48 414.85,-614.78 565.06,-954.78 401.77,-909.42 623.32,-1939.39 1185.41,-2730.27 3202.68,-4506.99 6472.54,-8966.52 9752.33,-13418.03 426.37,-578.74 968.04,-1166.64 1592.32,-1475.34 487.77,-241.09 1186.36,-55.82 1791.28,-60.01 -19.2,483.5 141.57,1085.1 -86.09,1431.83 -1771.13,2697.73 -3540,5403.58 -5462.37,7993.59 -1785.53,2405.63 -3712.63,4711.8 -5674.6,6977.68 -728.95,841.9 -1034.07,1656.6 -739.24,2921.03 598.19,-580.14 1118.84,-1091.29 1646.22,-1595.46 1694.1,-1619.62 3375.65,-3253.02 5096.89,-4843.42 444.6,-410.74 999.27,-714.82 1534.58,-1011.91 705.48,-391.55 1326.54,-247.55 1823.29,409.17 477.21,630.92 546.55,1214.9 -19.2,1862.12 -682.28,780.67 -1314.14,1607.41 -1936.77,2437.53 -368.01,490.65 -802.57,986.88 -978.42,1551.85 -210.29,675.48 -176.28,1427.02 -248.06,2145.59 668.15,-155.52 1421.43,-162.49 1991.28,-489.5 6042.35,-3466.9 10097.15,-8769.04 13464.96,-14700.44 344.81,-607.35 187.1,-998.39 -278.95,-1385.76 -2450.1,-2036.73 -4831.99,-4163.65 -7372.37,-6080.72 -1835.24,-1384.89 -3882.01,-2489.26 -5831.26,-3723.87 -245.71,-155.7 -471.72,-342.54 -706.88,-514.89 47.71,-110.34 95.34,-220.77 142.96,-331.11 1704.57,642.76 3434.46,1227.45 5101.62,1955.78 697.11,304.6 1075.93,277.91 1519.57,-344.28 823.24,-1154.28 1718.09,-2257.51 2706.02,-3541.92 -6460.59,-4202.22 -13162.02,-7623.93 -20556.63,-9540.81 -7345.15,-1904.07 -14849.06,-2488.22 -22434.54,-2593.42 1171.02,-158.14 2339.24,-343.41 3513.82,-466.92 1185.15,-124.65 2377.62,-266.83 3565.12,-253.3 936.63,10.72 1284.58,-361.82 1607.75,-1215.33 605.53,-1599.56 1428.42,-3116.86 2198.11,-4747.2 -16116.3,-477.38 -31133.97,3903.29 -45448.25,11213.56 -49.11,-102.31 -98.21,-204.55 -147.24,-306.78 2025.49,-1268.97 4021.31,-2589.32 6089.19,-3784.83 1008.68,-583.2 1657.99,-1326.02 2224.44,-2349.53 1161.59,-2098.75 2540.29,-4077.39 3792.33,-6046.97zm18771.9 42209.62l0 0c-2588.1,1095.74 -5189.01,2151.7 -7194.96,4141.15 -596.19,591.22 -964.11,1565.89 -1108.29,2420.36 -172.71,1023.87 535.57,1459.55 1430.86,947.19 3079.26,-1762.23 4951.32,-4648.03 6872.39,-7508.7zm-18185.91 4226.37l0 0c2106.69,-740.38 3720.46,-1970.79 4751.14,-3907.47 125.69,-236.39 100.13,-578.67 57.91,-858.83 -9.16,-60.46 -406.82,-126.83 -602.55,-84.45 -1678.32,363.21 -3928.77,2922.44 -4206.49,4850.75z"/>
  <path class="fil0" d="M92752.02 45470.85c1052.82,-791.49 2105.56,-1582.98 3289.57,-2473.13 -349.61,-90.02 -611.38,-216.5 -872.79,-215.8 -3287.48,8.82 -6532.99,350.22 -9610.07,1577.06 -907.34,361.72 -1794.26,903.14 -2524.25,1549.84 -974.14,863.1 -739.68,1736.51 486.72,2131.55 1680.94,541.33 3426.17,907.86 5063.49,1552.8 1704.31,671.38 3413.95,1430.6 4940.68,2427.87 2450.79,1600.86 2823.95,4209.27 921.36,6443.58 -865.97,1016.97 -2028.18,1990.16 -3255.89,2453.5 -4618.03,1742.87 -9420.36,2170.88 -14281.32,1197.88 -2875.85,-575.61 -3344.87,-2170.1 -1408.53,-4386.79 819.4,-937.95 1867.52,-1227.36 3415.87,-1130.9 -662.32,408.66 -1047.68,646.43 -1476.92,911.34 3479.91,1606.19 13074.28,143.49 15742.79,-2397.59 -654.98,-1301.24 -1817.53,-2041.35 -3125.76,-2472.78 -1450.57,-478.26 -2993.69,-673.04 -4449.67,-1138.3 -1600.43,-511.41 -3159.26,-1161.59 -4713.37,-1806.55 -957.39,-397.31 -1339.62,-1171.45 -1275.08,-2222.61 205.42,-3345.13 1569.64,-5862.65 4814.99,-7197.47 4305.41,-1770.79 8762.33,-2186.43 13336.38,-1627.82 854.13,104.32 1828.53,223.9 2079.57,1317.55 260.98,1137 -332.25,2787.66 -1275.68,3248.39 -1843.01,899.92 -3736.6,1696.2 -5609.27,2535.42 -70.92,-92.37 -141.83,-184.75 -212.83,-277.03z"/>
  <g id="_2292246989680">
   <path class="fil1" d="M48563.15 56341.34c-1720.98,4603.02 -5859.52,5718.91 -9958.55,6802.44 -2498.42,660.47 -5075.87,948.41 -7647.65,402.46 -4021.05,-853.78 -4780.89,-4224.28 -2985.77,-7223.3 1556.38,-2600.3 4089.62,-4026.37 6817.53,-5062.1 1750.02,-664.48 3595.74,-1076.02 5396.17,-1608.97 236.82,-70.13 459.34,-188.5 679.32,-548.82 -416.68,-60.19 -831.53,-141.66 -1250.31,-177.07 -1834.98,-155.27 -3697.53,-150.47 -5501.02,-475.82 -3300.46,-595.24 -4524.78,-3472.4 -2773.01,-6347.9 1607.58,-2638.77 4151.54,-4054.37 6975.58,-5002.44 3735.02,-1253.79 7562.08,-1631.12 11478.03,-1038.95 1035.28,156.49 1371.11,712.82 1476.83,1700.66 170.43,1592.85 -290.21,2630.74 -1917.94,3136.92 -902.62,280.69 -1695.16,898.6 -2580.85,1256.5 -618.69,250.07 -1311.36,317.06 -2252.18,529.29 824.81,-723.97 1463.39,-1284.58 2102.07,-1845.1 -2.27,-103.19 -4.45,-206.28 -6.73,-309.47 -870.6,-40.66 -1753.16,-193.21 -2609.64,-101.88 -3076.38,328.06 -5868.06,1448.3 -8385.51,3246.38 -218.23,155.88 -479.47,306.78 -604.99,526.24 -289.33,506.09 -806.24,1152.53 -671.82,1555.68 139.39,417.91 920.5,831.01 1450.92,873.58 2449.49,196.61 4909.54,261.24 7365.66,377.7 1074.97,51.03 2154.05,69.43 3222.76,182.65 956.61,101.36 1169.1,562.61 718.75,1430.51 -490.91,946.06 -1259.72,1496.89 -2339.33,1657.39 -3330.64,495.11 -6558.64,1334.74 -9391.84,3243.52 -1075.59,724.68 -2080.17,1572.68 -3033.82,2454.63 -691.44,639.46 -1203.03,1500.38 -828.22,2477.76 393.57,1025.96 1384.98,1269.32 2370.21,1351.93 2353.45,197.39 4636.95,-235.51 6713.99,-1284.85 2318.65,-1171.28 4511.34,-2591.76 6838.8,-3950.48 117.58,41.52 483.16,170.43 1018.8,359.28 17.37,331.45 46.68,891.79 76.06,1452.23l37.69 -40.56z"/>
   <path class="fil1" d="M48525.46 56381.9c595.07,-343.49 1158.72,-881.95 1792.68,-983.91 913.88,-146.98 1548.89,234.45 1437.31,1425.44 -48.32,515.25 272.85,1258.42 677.23,1550.64 245.54,177.5 1133.16,-164.43 1452.41,-522.59 1319.21,-1479.52 2607.19,-3001.45 3743.23,-4622.3 410.49,-585.63 362.78,-1492.44 524.15,-2252.71 -123.95,-99 -247.91,-198 -371.85,-296.92 -999.19,580.85 -1982.92,1190.82 -3003.12,1732.33 -678.88,360.24 -1416.21,608.74 -2115.76,932.19 -988.8,457.23 -1411.68,-84.52 -1662.19,-921.73 -275.97,-922.42 -263.42,-1840.91 722.77,-2289.86 1527.51,-695.28 3096.36,-1312.15 4683.35,-1858.36 634.13,-218.25 1364.83,-230.63 2048.77,-214.93 1967.56,45.27 2588,844.18 2232.55,2793.16 -67.08,367.48 -187.45,725.38 -71.61,1207.65 345.58,-474.6 727.72,-927.4 1027.87,-1429.2 393.4,-657.86 708.72,-1361.86 1081.35,-2032.81 1056.83,-1903.19 2634.32,-2441.29 4802.78,-1654.5 -1498.46,3005.72 -2998.84,6015.39 -4499.22,9024.95 114.35,74.32 228.79,148.64 343.14,222.87 751.11,-796.99 1471.16,-1626.33 2260.29,-2383.82 1298.46,-1246.28 2574.14,-2534.45 3998.55,-3622.94 588.51,-449.74 1532.22,-565.75 2321.87,-590.35 1162.91,-36.11 1668.29,748.84 1378.1,1867.34 -377.61,1455.21 -1522.62,2394.37 -3061.82,2511.07 -1704.85,129.27 -2831.02,976.68 -3235.32,2667.65 -132.85,555.89 -36.72,1413.94 318.9,1769.99 358.33,358.68 1243.76,491.53 1765.46,319.95 929.13,-305.63 1749.24,-932.71 2632.06,-1392.48 723.97,-377.08 1462.95,-1010.25 2401.33,55.48 -1440.8,1243.41 -2765.94,2598.3 -4294.75,3659.93 -2682.21,1862.37 -5188.23,628.11 -5579.88,-2613.83 -12.82,-106.5 -60.18,-208.91 -205.59,-693.79 -1097.48,1343.99 -2077.56,2485.16 -2984.71,3681.65 -413.36,545.17 -667.72,1208.44 -1020.55,1802.45 -731.74,1232.15 -2294.75,2042.92 -3595.65,1808.21 -818.1,-147.59 -482.7,-719.1 -302.14,-1165.7 848.19,-2098.23 1713.47,-4189.47 2566.72,-6285.71 140.79,-345.77 251.82,-703.65 223.82,-1180.96 -1367.89,1190.82 -2700.01,2426.38 -4115.61,3557.54 -1030.92,823.76 -2032.89,1664.53 -3516.27,1780.64 -1097.14,85.83 -1656.25,-338.62 -2139.14,-1142.85 -799.86,-1332.28 -704.88,-2798.39 -623.32,-4260.3 -0.52,0.86 -38.21,41.43 -38.21,41.43z"/>
   <path class="fil1" d="M43463.46 34161.7c-1274.64,90.98 -1656.08,-425.67 -1069.57,-1582.12 360.25,-710.45 819.06,-1392.91 1342.07,-1993.55 752.42,-864.15 1765.63,-587.82 2668.17,-313.92 222.33,67.51 442.23,715.78 381.35,1044.88 -273.2,1476.74 -1804.2,2736.55 -3322.02,2844.72z"/>
   <path class="fil1" d="M48690.06 34168.67c-1225.61,85.57 -1605.04,-383.89 -1056.31,-1462.35 392.09,-770.82 917.72,-1488.78 1470.47,-2158.76 676.26,-819.66 1611.94,-487.69 2425.41,-287.84 207.25,50.93 422.26,708.7 374.03,1050.98 -219.37,1554.81 -1610.11,2746.06 -3213.6,2857.97z"/>
  </g>
  <path class="fil0" d="M23325.25 48106.65c-49.46,1000.4 -915.09,1789.1 -1912.09,1742.17 -1002.32,-47.19 -1778.62,-902.79 -1734.49,-1911.65 43.7,-1001 903.76,-1788.92 1904.07,-1744.52 988.27,43.96 1791.37,926.08 1742.51,1914.01z"/>
  <path class="fil2" d="M119067.25 49538.74c-1921.07,2860.68 -3793.13,5746.47 -6872.39,7508.7 -895.29,512.36 -1603.57,76.68 -1430.86,-947.19 144.18,-854.47 512.1,-1829.14 1108.29,-2420.36 2005.95,-1989.45 4606.86,-3045.41 7194.96,-4141.15z"/>
  <path class="fil2" d="M100881.34 53765.11c277.72,-1928.31 2528.17,-4487.53 4206.49,-4850.75 195.73,-42.38 593.4,23.99 602.55,84.45 42.22,280.16 67.78,622.44 -57.91,858.83 -1030.67,1936.68 -2644.44,3167.09 -4751.14,3907.47z"/>
  <rect class="fil3" x="0.01" width="177288.94" height="65078.28"/>
 </g>
</svg>
